<svg width="12" height="12" viewBox="0 0 12 12" fill="none" xmlns="http://www.w3.org/2000/svg">
<path d="M7.68225 0.0568983C7.63999 0.0838911 7.60313 0.1195 7.57378 0.161691C7.54442 0.203882 7.52315 0.251828 7.51117 0.302791C7.49919 0.353754 7.49674 0.406735 7.50396 0.458708C7.51118 0.510681 7.52793 0.560627 7.55325 0.605694L9.46275 4.00007H2.53725L4.4475 0.605694C4.49862 0.514672 4.51375 0.405718 4.48956 0.302798C4.46536 0.199879 4.40383 0.111426 4.3185 0.0568983C4.23317 0.00237022 4.13102 -0.0137663 4.03453 0.0120385C3.93805 0.0378433 3.85512 0.103476 3.804 0.194497L1.66275 4.00007H0.75C0.551087 4.00007 0.360322 4.08435 0.21967 4.23438C0.0790176 4.38441 0 4.58789 0 4.80006V5.60005C0 5.81222 0.0790176 6.01571 0.21967 6.16573C0.360322 6.31576 0.551087 6.40005 0.75 6.40005V10C0.75 10.5304 0.947544 11.0391 1.29918 11.4142C1.65081 11.7893 2.12772 12 2.625 12H9.375C9.87228 12 10.3492 11.7893 10.7008 11.4142C11.0525 11.0391 11.25 10.5304 11.25 10V6.40005C11.4489 6.40005 11.6397 6.31576 11.7803 6.16573C11.921 6.01571 12 5.81222 12 5.60005V4.80006C12 4.58789 11.921 4.38441 11.7803 4.23438C11.6397 4.08435 11.4489 4.00007 11.25 4.00007H10.3372L8.1975 0.194497C8.17219 0.149421 8.13881 0.110104 8.09926 0.0787921C8.0597 0.0474804 8.01475 0.0247874 7.96697 0.0120095C7.9192 -0.000768391 7.86953 -0.00338081 7.8208 0.00432132C7.77208 0.0120235 7.72525 0.0298893 7.683 0.0568983H7.68225ZM10.5 6.40005V10C10.5 10.3183 10.3815 10.6235 10.1705 10.8485C9.95952 11.0736 9.67337 11.2 9.375 11.2H2.625C2.32663 11.2 2.04048 11.0736 1.8295 10.8485C1.61853 10.6235 1.5 10.3183 1.5 10V6.40005H10.5ZM11.25 4.80006V5.60005H0.75V4.80006H11.25ZM9 7.20004C8.90054 7.20004 8.80516 7.24218 8.73484 7.3172C8.66451 7.39221 8.625 7.49395 8.625 7.60004V10C8.625 10.1061 8.66451 10.2078 8.73484 10.2829C8.80516 10.3579 8.90054 10.4 9 10.4C9.09946 10.4 9.19484 10.3579 9.26516 10.2829C9.33549 10.2078 9.375 10.1061 9.375 10V7.60004C9.375 7.49395 9.33549 7.39221 9.26516 7.3172C9.19484 7.24218 9.09946 7.20004 9 7.20004ZM7.5 7.20004C7.40054 7.20004 7.30516 7.24218 7.23484 7.3172C7.16451 7.39221 7.125 7.49395 7.125 7.60004V10C7.125 10.1061 7.16451 10.2078 7.23484 10.2829C7.30516 10.3579 7.40054 10.4 7.5 10.4C7.59946 10.4 7.69484 10.3579 7.76516 10.2829C7.83549 10.2078 7.875 10.1061 7.875 10V7.60004C7.875 7.49395 7.83549 7.39221 7.76516 7.3172C7.69484 7.24218 7.59946 7.20004 7.5 7.20004ZM6 7.20004C5.90054 7.20004 5.80516 7.24218 5.73483 7.3172C5.66451 7.39221 5.625 7.49395 5.625 7.60004V10C5.625 10.1061 5.66451 10.2078 5.73483 10.2829C5.80516 10.3579 5.90054 10.4 6 10.4C6.09946 10.4 6.19484 10.3579 6.26516 10.2829C6.33549 10.2078 6.375 10.1061 6.375 10V7.60004C6.375 7.49395 6.33549 7.39221 6.26516 7.3172C6.19484 7.24218 6.09946 7.20004 6 7.20004ZM4.5 7.20004C4.40054 7.20004 4.30516 7.24218 4.23483 7.3172C4.16451 7.39221 4.125 7.49395 4.125 7.60004V10C4.125 10.1061 4.16451 10.2078 4.23483 10.2829C4.30516 10.3579 4.40054 10.4 4.5 10.4C4.59946 10.4 4.69484 10.3579 4.76517 10.2829C4.83549 10.2078 4.875 10.1061 4.875 10V7.60004C4.875 7.49395 4.83549 7.39221 4.76517 7.3172C4.69484 7.24218 4.59946 7.20004 4.5 7.20004ZM3 7.20004C2.90054 7.20004 2.80516 7.24218 2.73483 7.3172C2.66451 7.39221 2.625 7.49395 2.625 7.60004V10C2.625 10.1061 2.66451 10.2078 2.73483 10.2829C2.80516 10.3579 2.90054 10.4 3 10.4C3.09946 10.4 3.19484 10.3579 3.26517 10.2829C3.33549 10.2078 3.375 10.1061 3.375 10V7.60004C3.375 7.49395 3.33549 7.39221 3.26517 7.3172C3.19484 7.24218 3.09946 7.20004 3 7.20004Z" fill="#05960B"/>
</svg>
