<svg width="88" height="78" viewBox="0 0 88 78" fill="none" xmlns="http://www.w3.org/2000/svg">
<g clip-path="url(#clip0_1072_2)">
<path d="M19.9003 1.4558C20.5536 0.914215 21.3752 0.614437 22.2256 0.607434C23.0759 0.600431 23.9024 0.886636 24.5646 1.41739C24.7293 1.12341 24.9481 0.862819 25.2094 0.649141C25.4867 0.406203 25.8102 0.221026 26.1606 0.104553C26.511 -0.0119202 26.8814 -0.0573258 27.2498 -0.0289807C27.6182 -0.000635583 27.9771 0.100885 28.3054 0.269582C28.6337 0.438279 28.9246 0.670728 29.1611 0.953194C29.3975 1.23566 29.5746 1.56241 29.682 1.91413C29.7893 2.26586 29.8247 2.63542 29.786 3.00098C29.7474 3.36654 29.6354 3.72068 29.4568 4.04247C29.2783 4.36426 29.0366 4.64718 28.7463 4.87449L28.6304 4.94748C29.2168 5.3582 29.6688 5.93137 29.9302 6.59568C30.1916 7.25998 30.2509 7.9861 30.1007 8.68367C29.9505 9.38124 29.5974 10.0195 29.0854 10.519C28.5734 11.0185 27.9251 11.3572 27.2211 11.4929C27.234 12.0906 27.0984 12.6822 26.8262 13.2151C26.554 13.7481 26.1537 14.2059 25.6609 14.548C25.1681 14.89 24.598 15.1057 24.0013 15.1758C23.4045 15.246 22.7996 15.1684 22.2402 14.95C22.1369 15.0746 22.0232 15.1902 21.9004 15.2957C21.6217 15.5271 21.2998 15.7016 20.9533 15.809C20.6067 15.9165 20.2422 15.9549 19.8807 15.9221C19.5192 15.8893 19.1677 15.7859 18.8465 15.6177C18.5252 15.4496 18.2404 15.2201 18.0084 14.9424C17.7034 14.5775 17.5009 14.1388 17.4215 13.6709C16.7407 13.7574 16.0521 13.5882 15.4901 13.1963C14.9281 12.8045 14.5332 12.2183 14.3826 11.5523C14.232 10.8862 14.3366 10.1882 14.6757 9.59475C15.0149 9.00127 15.5644 8.55498 16.2168 8.34312C16.2634 7.62851 16.523 6.94391 16.9624 6.37673C17.4019 5.80955 18.0013 5.38551 18.6841 5.15874C18.5136 4.49131 18.5363 3.78955 18.7494 3.13437C18.9626 2.4792 19.3575 1.8973 19.8887 1.4558H19.9003Z" fill="#A3CD3A"/>
<path d="M26.028 13.0612C25.7261 12.6948 25.5252 12.2567 25.445 11.7897C24.7595 11.884 24.0635 11.7183 23.4952 11.3257C22.9268 10.9331 22.5276 10.3422 22.3769 9.67031C22.2261 8.99845 22.3349 8.29477 22.6815 7.69898C23.0282 7.1032 23.5873 6.65888 24.248 6.45424C24.2956 5.73992 24.5556 5.05581 24.9949 4.48881C25.4342 3.92181 26.0331 3.49753 26.7153 3.26986C26.5771 2.71329 26.5719 2.13226 26.6999 1.57329C26.828 1.01432 27.0858 0.49295 27.4528 0.0509131C26.8882 -0.0569243 26.3037 0.017154 25.7843 0.262384C25.2649 0.507614 24.8377 0.911218 24.5646 1.41455C23.9645 0.932523 23.2271 0.650525 22.457 0.608483C21.6868 0.566442 20.9228 0.766488 20.2733 1.1803C19.6237 1.5941 19.1215 2.2007 18.8376 2.91421C18.5538 3.62771 18.5028 4.41196 18.6918 5.15591C18.0078 5.38187 17.4071 5.80549 16.9662 6.37268C16.5254 6.93987 16.2645 7.62489 16.2168 8.34029C15.5503 8.54024 14.9845 8.98363 14.633 9.58143C14.2816 10.1792 14.1704 10.8872 14.322 11.5631C14.4735 12.2391 14.8765 12.833 15.45 13.2255C16.0235 13.6181 16.725 13.7803 17.4137 13.6796C17.4932 14.1475 17.6957 14.5862 18.0006 14.951C18.2327 15.2288 18.5175 15.4583 18.8387 15.6264C19.16 15.7945 19.5115 15.898 19.873 15.9308C20.2345 15.9636 20.599 15.9252 20.9456 15.8177C21.2921 15.7102 21.614 15.5358 21.8927 15.3044C22.0155 15.1989 22.1292 15.0833 22.2325 14.9587C22.8414 15.1944 23.5026 15.2639 24.1475 15.1598C24.7925 15.0558 25.3977 14.7822 25.9006 14.3672C26.1701 14.1399 26.4031 13.8731 26.5918 13.5759C26.3803 13.4318 26.1904 13.2585 26.028 13.0612Z" fill="#7ABA43"/>
<path d="M19.8502 12.5223L19.827 12.4955C19.7528 12.4 19.6983 12.291 19.6666 12.1745C19.635 12.058 19.6268 11.9365 19.6426 11.8169C19.6584 11.6972 19.6978 11.5819 19.7586 11.4775C19.8194 11.3731 19.9004 11.2817 19.9969 11.2086C22.1065 9.59878 23.6969 7.4104 24.5724 4.91287C24.6535 4.68771 24.8197 4.50293 25.0357 4.39787C25.2517 4.29281 25.5004 4.27576 25.7288 4.35034C25.9573 4.42493 26.1474 4.58526 26.2588 4.79722C26.3703 5.00917 26.3941 5.25602 26.3253 5.48521V5.51594C25.3325 8.35814 23.5227 10.8478 21.1205 12.676C20.9313 12.82 20.6934 12.8857 20.4566 12.8592C20.2198 12.8327 20.0025 12.7161 19.8502 12.5339V12.5223Z" fill="#669940"/>
<path d="M23.3019 9.49933C23.2178 9.39759 23.1524 9.28185 23.1088 9.15747L21.4948 4.49037C21.4489 4.38049 21.4269 4.26215 21.4303 4.14317C21.4337 4.02419 21.4624 3.90729 21.5146 3.80019C21.5668 3.69309 21.6412 3.59822 21.733 3.52186C21.8248 3.4455 21.9318 3.38938 22.047 3.35721C22.2959 3.3084 22.5541 3.35224 22.7727 3.48042C22.9912 3.6086 23.1548 3.81218 23.2324 4.05247L24.5374 7.81304L26.5144 7.32136C26.7637 7.27361 27.022 7.31837 27.2404 7.44718C27.4588 7.57599 27.6222 7.77993 27.6997 8.02046C27.7443 8.13097 27.7651 8.24958 27.7606 8.36858C27.7561 8.48757 27.7265 8.6043 27.6737 8.71117C27.6209 8.81804 27.546 8.91266 27.4541 8.98889C27.3621 9.06512 27.2551 9.12124 27.1399 9.15362L24.2903 9.85273C24.1088 9.89037 23.9204 9.87727 23.7459 9.8149C23.5715 9.75252 23.4178 9.6433 23.3019 9.49933Z" fill="#669940"/>
<path d="M20.0469 12.3726C19.9619 12.2718 19.9 12.1538 19.8655 12.0269L19.0083 8.8348C18.9647 8.71721 18.9459 8.59198 18.9528 8.46685C18.9598 8.34172 18.9924 8.21933 19.0487 8.10723C19.105 7.99512 19.1838 7.89567 19.2802 7.81499C19.3766 7.73432 19.4886 7.67414 19.6092 7.63815C19.7299 7.60217 19.8567 7.59114 19.9818 7.60575C20.1069 7.62036 20.2277 7.66029 20.3367 7.7231C20.4457 7.78591 20.5407 7.87025 20.6157 7.97094C20.6907 8.07163 20.7442 8.18653 20.7728 8.30856V8.35849L21.4331 10.7938L23.4641 10.621C23.702 10.6055 23.9367 10.6823 24.119 10.8351C24.3013 10.988 24.417 11.2051 24.442 11.441C24.4669 11.6769 24.3992 11.9132 24.2528 12.1005C24.1065 12.2877 23.8931 12.4114 23.6571 12.4456H23.6185L20.8501 12.7029C20.7041 12.7136 20.5578 12.6891 20.4234 12.6316C20.2889 12.5741 20.1704 12.4853 20.0778 12.3726H20.0469Z" fill="#669940"/>
<path d="M37.21 18.7759C37.0601 18.5498 36.8583 18.3622 36.6214 18.2287C36.3845 18.0952 36.1191 18.0194 35.847 18.0077H1.93048C0.864792 18.0077 -0.000111158 19.1601 -0.000111158 20.5928C-0.0103206 21.245 0.186994 21.8836 0.56362 22.4174C0.714632 22.6434 0.917122 22.8308 1.15463 22.9643C1.39213 23.0978 1.65795 23.1736 1.93048 23.1857C2.24574 23.1942 2.54861 23.3097 2.7888 23.513C3.029 23.7163 3.19209 23.9952 3.251 24.3035L12.6066 65.4776C12.7178 65.8428 12.9135 66.177 13.1781 66.4533C13.4125 66.6772 13.69 66.8519 13.9938 66.9667C14.2977 67.0816 14.6217 67.1343 14.9465 67.1217H25.9779C26.6302 67.1217 27.2558 66.8639 27.717 66.405C28.1783 65.9461 28.4374 65.3237 28.4374 64.6748C28.4364 64.3236 28.2957 63.9871 28.0461 63.7388C27.7965 63.4905 27.4583 63.3506 27.1053 63.3496H17.5335C16.3288 63.3496 15.3094 62.8195 15.1743 61.6287L11.3672 27.7875C11.3331 27.5878 11.342 27.3832 11.3933 27.1873C11.4447 26.9913 11.5373 26.8085 11.6651 26.6508C11.7929 26.4932 11.9529 26.3644 12.1345 26.2729C12.3162 26.1815 12.5152 26.1295 12.7186 26.1204H33.0399C33.3541 26.1126 33.6562 25.9989 33.8968 25.7979C34.1374 25.5969 34.3023 25.3205 34.3643 25.0141L34.5265 24.3035C34.5854 23.9952 34.7485 23.7163 34.9887 23.513C35.2289 23.3097 35.5318 23.1942 35.847 23.1857C36.9127 23.1857 37.7776 22.0333 37.7776 20.6044C37.7888 19.9503 37.59 19.3098 37.21 18.7759Z" fill="url(#paint0_linear_1072_2)"/>
<path d="M20.0972 41.4045H17.6801C16.3601 41.4045 15.29 42.4691 15.29 43.7823V43.7861C15.29 45.0993 16.3601 46.1638 17.6801 46.1638H20.0972C21.4172 46.1638 22.4873 45.0993 22.4873 43.7861V43.7823C22.4873 42.4691 21.4172 41.4045 20.0972 41.4045Z" fill="url(#paint1_linear_1072_2)"/>
<path d="M51.6122 64.6555C51.6224 66.434 51.2636 68.1954 50.5581 69.8297C49.1896 73.0366 46.6231 75.5898 43.3995 76.9513C41.7499 77.6439 39.9775 78.0007 38.1869 78.0007C36.3964 78.0007 34.624 77.6439 32.9744 76.9513C31.3861 76.2757 29.944 75.3014 28.7271 74.0819C27.5114 72.8582 26.5417 71.415 25.8698 69.8297C25.1644 68.1954 24.8055 66.434 24.8157 64.6555C24.8043 62.8633 25.1631 61.0878 25.8698 59.4391C27.2186 56.2385 29.7707 53.6885 32.9821 52.3329C34.6612 51.625 36.4683 51.267 38.2919 51.2809C40.1154 51.2948 41.9168 51.6802 43.5849 52.4135C45.2176 53.1531 46.6932 54.1961 47.9325 55.4865V55.0102C47.929 54.968 47.929 54.9256 47.9325 54.8834C47.9375 54.8426 47.9375 54.8013 47.9325 54.7605C47.928 53.4336 47.6356 52.1234 47.0754 50.9193C46.5354 49.7722 45.77 48.7443 44.8243 47.8962C43.8523 47.035 42.7275 46.3615 41.5075 45.9103C40.2117 45.4254 38.8378 45.1793 37.4533 45.1843H32.3488C32.1078 45.1844 31.8693 45.1346 31.6486 45.0381C31.4279 44.9415 31.2298 44.8003 31.0669 44.6235C30.8884 44.4539 30.7464 44.25 30.6495 44.0242C30.5526 43.7984 30.5029 43.5553 30.5032 43.3098C30.5003 43.0749 30.5478 42.8421 30.6423 42.6269C30.7368 42.4117 30.8763 42.2189 31.0515 42.0614C31.3938 41.7283 31.8546 41.5433 32.3334 41.5467H37.6618C39.5117 41.552 41.3445 41.8984 43.0675 42.5684C44.7047 43.2006 46.2063 44.1365 47.4924 45.3264C48.7647 46.5139 49.7871 47.941 50.5002 49.5249C51.254 51.2053 51.6334 53.0281 51.6122 54.8681V64.6594V64.6555ZM47.168 60.8642C46.6789 59.7063 45.9726 58.6517 45.0869 57.7567C44.2031 56.8694 43.1539 56.1622 41.9979 55.6747C40.7976 55.163 39.5045 54.9015 38.1985 54.9065C36.8801 54.9011 35.5743 55.1625 34.3605 55.6747C33.2027 56.1588 32.1528 56.8664 31.2716 57.7567C29.4611 59.6057 28.4554 62.0897 28.4722 64.6709C28.4666 65.9418 28.7174 67.201 29.2097 68.3738C29.6929 69.5182 30.3899 70.561 31.2639 71.4468C32.1693 72.3649 33.2513 73.0921 34.4454 73.5851C35.6395 74.0781 36.9212 74.3268 38.214 74.3162C39.5239 74.324 40.8214 74.0624 42.0249 73.548C43.1825 73.0547 44.2319 72.3409 45.1139 71.4468C45.9876 70.5584 46.6881 69.5165 47.1796 68.3738C47.6932 67.1956 47.9561 65.9244 47.9519 64.6401C47.9499 63.3417 47.6832 62.0572 47.168 60.8642Z" fill="#231F20"/>
<path d="M54.2532 64.6555C54.2418 62.8633 54.6006 61.0878 55.3073 59.4391C55.9825 57.8479 56.9621 56.4024 58.1916 55.183C59.4226 53.9728 60.8729 53.0057 62.4659 52.3329C64.1082 51.6434 65.8728 51.2882 67.6553 51.2882C69.4379 51.2882 71.2024 51.6434 72.8447 52.3329C74.4246 52.998 75.8652 53.9517 77.092 55.1446C78.3108 56.3416 79.2851 57.7622 79.9609 59.3277C80.6694 60.9535 81.046 62.7031 81.069 64.475V75.749C81.0763 75.999 81.0328 76.2479 80.9413 76.4809C80.8497 76.7138 80.712 76.9261 80.5362 77.1049C80.3615 77.2845 80.1511 77.4257 79.9184 77.5196C79.6857 77.6136 79.4358 77.6581 79.1848 77.6504C78.9445 77.6586 78.7054 77.614 78.4845 77.5197C78.2636 77.4255 78.0663 77.2838 77.9067 77.1049C77.575 76.7319 77.3995 76.2467 77.4164 75.749L77.3855 73.5403C76.155 74.8772 74.6878 75.9774 73.0571 76.7861C71.387 77.609 69.546 78.0301 67.6824 78.0153C65.8947 78.0251 64.1241 77.6681 62.4814 76.9666C59.2577 75.6052 56.6913 73.052 55.3227 69.845C54.6099 68.2072 54.2457 66.4403 54.2532 64.6555ZM57.9097 64.6555C57.9055 65.9397 58.1684 67.211 58.682 68.3892C59.6768 70.7157 61.5357 72.5706 63.8714 73.5672C65.0737 74.0812 66.3698 74.3428 67.6785 74.3354C68.9713 74.346 70.253 74.0973 71.4471 73.6043C72.6412 73.1113 73.7232 72.3841 74.6286 71.466C75.5026 70.581 76.1985 69.5379 76.6789 68.393C77.181 67.212 77.4359 65.9416 77.428 64.6594C77.4317 63.3566 77.169 62.0666 76.6557 60.8681C76.1679 59.7132 75.4673 58.6592 74.59 57.7605C73.6858 56.8509 72.607 56.1315 71.4176 55.6451C70.2283 55.1588 68.9527 54.9154 67.6669 54.9295C66.3828 54.9243 65.1104 55.1725 63.9234 55.6598C62.7364 56.147 61.6583 56.8637 60.7515 57.7682C59.8645 58.6622 59.1581 59.7171 58.6704 60.8757C58.1653 62.0721 57.9091 63.3579 57.9174 64.6555H57.9097Z" fill="#231F20"/>
<path d="M87.9999 75.484C88.0079 75.7698 87.9557 76.0542 87.8466 76.3188C87.7376 76.5834 87.5741 76.8224 87.3667 77.0205C87.1753 77.2167 86.946 77.3723 86.6925 77.4779C86.439 77.5836 86.1666 77.637 85.8917 77.635C85.6056 77.6424 85.3209 77.5918 85.055 77.4864C84.7891 77.381 84.5475 77.2228 84.345 77.0217C84.1424 76.8205 83.983 76.5804 83.8765 76.3161C83.7701 76.0518 83.7187 75.7686 83.7256 75.484C83.7215 75.208 83.7743 74.9341 83.8805 74.6791C83.9867 74.4241 84.1443 74.1934 84.3434 74.0012C84.545 73.7991 84.786 73.64 85.0516 73.5336C85.3171 73.4273 85.6017 73.376 85.8879 73.3828C86.163 73.3816 86.4354 73.4357 86.6889 73.542C86.9424 73.6483 87.1716 73.8045 87.3628 74.0012C87.5676 74.1902 87.7301 74.4198 87.8398 74.6752C87.9496 74.9307 88.0041 75.2062 87.9999 75.484ZM28.7194 43.644C28.7234 43.9233 28.6721 44.2006 28.5683 44.4602C28.4646 44.7197 28.3103 44.9563 28.1145 45.1565C27.9187 45.3566 27.6851 45.5164 27.4272 45.6266C27.1692 45.7369 26.8919 45.7954 26.6112 45.7989C26.3247 45.8063 26.0397 45.7556 25.7735 45.65C25.5074 45.5443 25.2656 45.3858 25.0629 45.1842C24.8603 44.9826 24.701 44.7421 24.5948 44.4773C24.4886 44.2125 24.4376 43.929 24.445 43.644C24.4417 43.3681 24.4947 43.0944 24.6009 42.8395C24.7071 42.5846 24.8642 42.3539 25.0628 42.1613C25.2646 41.9596 25.5057 41.8011 25.7713 41.6954C26.0369 41.5897 26.3214 41.5391 26.6073 41.5467C26.8821 41.5447 27.1545 41.5982 27.408 41.7038C27.6615 41.8094 27.8909 41.9651 28.0823 42.1613C28.2864 42.3507 28.4485 42.5804 28.5582 42.8357C28.6679 43.091 28.7228 43.3664 28.7194 43.644ZM84.0075 43.7016C84.002 43.4555 84.0467 43.2108 84.139 42.9824C84.2312 42.7539 84.3691 42.5465 84.5442 42.3726C84.7133 42.2001 84.9153 42.063 85.1385 41.9694C85.3616 41.8758 85.6013 41.8276 85.8435 41.8276C86.0856 41.8276 86.3254 41.8758 86.5485 41.9694C86.7716 42.063 86.9737 42.2001 87.1428 42.3726C87.3137 42.5488 87.4478 42.757 87.5372 42.9851C87.6267 43.2133 87.6698 43.4568 87.664 43.7016V68.0128C87.6722 68.2596 87.6303 68.5056 87.5407 68.7359C87.4512 68.9663 87.3158 69.1763 87.1428 69.3534C86.9699 69.5302 86.7617 69.6691 86.5316 69.761C86.3015 69.853 86.0546 69.896 85.8068 69.8873C85.5681 69.8922 85.331 69.8472 85.1108 69.7552C84.8907 69.6633 84.6924 69.5263 84.5287 69.3534C84.3557 69.1763 84.2203 68.9663 84.1308 68.7359C84.0412 68.5056 83.9993 68.2596 84.0075 68.0128V43.7016Z" fill="#231F20"/>
</g>
<defs>
<linearGradient id="paint0_linear_1072_2" x1="14.3596" y1="12.6569" x2="26.9811" y2="48.0799" gradientUnits="userSpaceOnUse">
<stop offset="0.02" stop-color="#F15822"/>
<stop offset="0.19" stop-color="#F3671E"/>
<stop offset="0.53" stop-color="#F78E14"/>
<stop offset="1" stop-color="#FFCD03"/>
</linearGradient>
<linearGradient id="paint1_linear_1072_2" x1="17.3905" y1="41.201" x2="20.3636" y2="46.3769" gradientUnits="userSpaceOnUse">
<stop offset="0.02" stop-color="#F47D20"/>
<stop offset="0.88" stop-color="#FEBE0C"/>
<stop offset="1" stop-color="#FFC709"/>
</linearGradient>
<clipPath id="clip0_1072_2">
<rect width="88" height="78" fill="white"/>
</clipPath>
</defs>
</svg>
