<svg width="25" height="25" viewBox="0 0 25 25" fill="none" xmlns="http://www.w3.org/2000/svg">
<path d="M7.8125 21.5375C8.45971 21.5375 8.98438 21.03 8.98438 20.404C8.98438 19.778 8.45971 19.2705 7.8125 19.2705C7.16529 19.2705 6.64062 19.778 6.64062 20.404C6.64062 21.03 7.16529 21.5375 7.8125 21.5375Z" fill="black"/>
<path d="M17.9688 21.5375C18.616 21.5375 19.1406 21.03 19.1406 20.404C19.1406 19.778 18.616 19.2705 17.9688 19.2705C17.3215 19.2705 16.7969 19.778 16.7969 20.404C16.7969 21.03 17.3215 21.5375 17.9688 21.5375Z" fill="black"/>
<path d="M4.12947 6.80171H21.6518L19.0738 15.5294C18.9805 15.8452 18.7834 16.1231 18.5123 16.3208C18.2413 16.5186 17.911 16.6256 17.5714 16.6256H8.20985C7.8703 16.6256 7.54 16.5186 7.26892 16.3208C6.99784 16.1231 6.80075 15.8452 6.70747 15.5294L3.17529 3.57137C3.12865 3.41347 3.0301 3.27456 2.89456 3.17567C2.75902 3.07678 2.59387 3.02328 2.4241 3.02328H0.78125" stroke="black" stroke-linecap="round" stroke-linejoin="round"/>
</svg>
